<svg width="400" height="300" viewBox="0 0 400 300" fill="none" xmlns="http://www.w3.org/2000/svg">
<rect x="-18.1533" y="-28.3005" width="422.253" height="344.426" fill="#FAEFDB"/>
<path opacity="0.05" fill-rule="evenodd" clip-rule="evenodd" d="M204.864 -110.945V-170.352H208.864V-112.104L232.126 -98.7673L255.387 -112.104V-170.352H259.387V-110.945V-109.786L258.382 -109.21L236.147 -96.4619L258.382 -83.7139L259.387 -83.1376V-81.9789V-55.8333L280.108 -67.5977V-126.544H284.108V-68.2949L307.369 -54.9585L330.63 -68.2949V-126.544H334.63V-67.1361V-65.9774L333.625 -65.4011L311.39 -52.6531L333.625 -39.9051L334.63 -39.3287V-38.17V-13.1205L355.352 -24.8849V-51.0501L333.638 -63.4577L335.623 -66.9306L355.352 -55.6571V-82.7347H359.352V-53.3714L385.207 -38.597L405.874 -50.3307V-82.7347H409.874V-52.6017L435.117 -66.9334L437.092 -63.4549L409.874 -48.002V-23.3273V-22.1686L408.869 -21.5922L386.634 -8.84421L408.869 3.90376L409.874 4.4801V5.63882V34.0948L435.117 19.763L437.092 23.2415L409.874 38.6945V63.5711V64.7231L408.877 65.3011L386.599 78.2225L408.878 91.1439L409.874 91.7219V92.874V120.791L435.117 106.46L437.092 109.938L409.874 125.391V150.469V151.621L408.878 152.199L386.599 165.121L408.877 178.042L409.874 178.62V179.772V207.991L436.003 193.156L437.977 196.635L409.874 212.591V237.705V238.87L408.86 239.445L386.67 252.019L408.86 264.594L409.874 265.168V266.334V294.688L436.003 279.853L437.977 283.332L409.874 299.287V323.888V325.023L408.899 325.605L385.496 339.567L408.861 352.832L409.874 353.407V354.571V412.129H405.874V355.736L381.546 341.923L359.352 355.164V408.871H355.352V354.028V352.893L356.327 352.311L377.545 339.652L356.364 327.627L355.352 327.052V327.004L334.63 338.768V368.32H330.63V341.039L308.635 353.527L307.645 354.089L306.656 353.524L284.108 340.64V365.062H280.108V338.354L256.083 324.625L256.148 324.511H255.387V298.327L233.998 310.47L233.008 311.032L232.019 310.467L208.864 297.236V321.253H208.042L209.958 324.628L184.749 338.941V368.32H180.749V341.212L159.057 353.527L158.067 354.089L157.078 353.524L134.227 340.467V365.062H130.227V338.181L108.688 325.873L85.7341 339.567L109.099 352.832L110.112 353.407V354.571V412.129H106.112V355.736L81.7836 341.923L59.5895 355.164V408.871H55.5895V354.028V352.893L56.5648 352.311L77.7832 339.652L56.602 327.627L55.6289 327.074L35.4741 338.517V368.32H31.4741V340.788L9.03636 353.527L8.04572 354.089L7.05664 353.524L-15.0482 340.893V365.062H-19.0482V338.607L-41.5713 325.737L-64.7527 339.567L-41.3876 352.832L-40.375 353.407V354.571V412.129H-44.375V355.736L-68.7033 341.923L-90.8973 355.164V408.871H-94.8973V354.028V352.893L-93.922 352.311L-72.7036 339.652L-93.8848 327.627L-94.8974 327.052V325.888V295.297L-118.923 281.568L-116.938 278.096L-94.8974 290.69V266.334V265.168L-93.8834 264.594L-71.6929 252.019L-93.8833 239.445L-94.8973 238.87V237.705V208.6L-118.923 194.872L-116.938 191.399L-94.8973 203.994V179.772V178.62L-93.9007 178.042L-71.6225 165.121L-93.9008 152.199L-94.8974 151.621V150.469V122.41L-119.808 108.175L-117.824 104.702L-94.8974 117.803V92.874V91.7219L-93.9008 91.1439L-71.6224 78.2225L-93.9007 65.3011L-94.8973 64.7231V63.5711V35.7129L-119.808 21.4783L-117.824 18.0053L-94.8973 31.1059V5.63882V4.4801L-93.8921 3.90376L-71.6572 -8.84421L-93.8921 -21.5922L-94.8974 -22.1686V-23.3273V-50.9836L-119.808 -65.2182L-117.824 -68.6911L-94.8974 -55.5905V-82.7347H-90.8974V-53.3048L-68.2394 -40.3575L-44.3749 -53.9064V-82.7347H-40.3749V-56.1774L-19.0483 -68.2855V-126.544H-15.0483V-68.2949L8.21298 -54.9585L31.4742 -68.2949V-126.544H35.4742V-67.1361V-67.0849L55.5894 -55.5906V-82.7347H59.5894V-53.3049L82.2474 -40.3575L106.112 -53.9064V-82.7347H110.112V-56.1774L130.227 -67.5975V-126.544H134.227V-68.2949L157.488 -54.9585L180.749 -68.2949V-126.544H184.749V-67.4317L204.864 -55.9373V-81.9789V-83.1376L205.87 -83.7139L228.105 -96.4619L205.87 -109.21L204.864 -109.786V-110.945ZM-44.3749 -49.3067L-67.2551 -36.3166L-68.2458 -35.7542L-69.2349 -36.3194L-90.8974 -48.6979V-24.486L-67.6361 -11.1496L-44.3749 -24.486V-49.3067ZM-40.3749 -51.5777L-17.04 -64.826L4.19193 -52.6531L-18.0429 -39.9051L-19.0482 -39.3287V-38.17V-12.2805L-40.3749 -24.4672V-51.5777ZM-42.3914 -21.0125L-63.6151 -8.84421L-41.3802 3.90376L-40.375 4.4801V5.63882V30.519L-19.0482 18.4109V-7.67355L-42.3914 -21.0125ZM-44.375 32.79V6.79755L-67.6361 -6.53882L-90.8973 6.79755V33.3916L-68.2394 46.3389L-44.375 32.79ZM-90.8973 37.9986L-69.2349 50.3771L-68.2458 50.9422L-67.2551 50.3798L-44.375 37.3897V62.419L-67.6361 75.9104L-90.8973 62.419V37.9986ZM-40.375 35.1188L-17.2217 21.9736L4.22668 34.4137L-18.0517 47.3351L-19.0483 47.9131V49.0652V74.4158L-40.375 62.2292V35.1188ZM-42.2102 65.7875L-63.6498 78.2225L-41.3715 91.1439L-40.3749 91.7219V92.874V117.216L-19.0483 105.108V79.0228L-42.2102 65.7875ZM-44.3749 119.487V94.0261L-67.6361 80.5345L-90.8974 94.0261V120.088L-68.2394 133.036L-44.3749 119.487ZM-90.8974 124.695L-69.2349 137.074L-68.2458 137.639L-67.2551 137.076L-44.3749 124.086V149.317L-67.6361 162.809L-90.8974 149.317V124.695ZM-40.3749 121.815L-17.3975 108.77L4.22666 121.312L-18.0516 134.233L-19.0482 134.811V135.964V161.113L-40.3749 148.926V121.815ZM-42.035 152.584L-63.6498 165.121L-41.3716 178.042L-40.375 178.62V179.772V204.415L-19.0482 192.307V165.72L-42.035 152.584ZM-44.375 206.686V180.924L-67.6361 167.433L-90.8973 180.924V206.279L-67.3541 219.732L-44.375 206.686ZM-90.8973 210.886L-68.3496 223.771L-67.3605 224.336L-66.3699 223.773L-44.375 211.286V236.539L-67.6361 249.72L-90.8973 236.539V210.886ZM-40.375 209.015L-17.4214 195.983L4.15627 208.21L-18.0343 220.785L-19.0483 221.36V222.525V247.303L-40.375 235.117V209.015ZM-41.1251 239.295L-41.389 239.445L-63.5794 252.019L-41.3889 264.594L-40.3749 265.168V266.334V291.112L-19.0483 279.004V251.91L-41.1251 239.295ZM-44.3749 293.383V267.499L-67.6361 254.318L-90.8974 267.499V292.976L-67.3541 306.429L-44.3749 293.383ZM-90.8974 297.583L-68.3496 310.467L-67.3605 311.032L-66.3699 310.47L-44.3749 297.983V322.752L-68.7531 337.295L-90.8974 324.723V297.583ZM-40.3749 295.712L-18.7309 283.423L-18.0357 283.818L3.14548 295.843L-18.0729 308.502L-19.0482 309.084V310.219V334L-40.3749 321.814V295.712ZM55.5894 322.497L35.4741 333.917V310.762V309.598L34.4616 309.023L11.0964 295.758L33.258 282.536L55.5894 295.297V322.497ZM55.5894 290.69L35.4742 279.196V251.82L56.938 239.634L78.794 252.019L56.6034 264.594L55.5894 265.168V266.334V290.69ZM55.5895 235.8L35.4742 247.221V222.525V221.36L34.4602 220.785L12.2697 208.21L33.6774 196.079L55.5895 208.6V235.8ZM55.5895 203.993L35.4741 192.499V164.621L56.9652 152.419L78.8644 165.121L56.5861 178.042L55.5895 178.62V179.772V203.993ZM55.5894 148.601L35.4741 160.021V135.964V134.811L34.4776 134.233L12.1993 121.312L32.7797 109.375L55.5894 122.41V148.601ZM55.5894 117.803L35.4742 106.308V77.9241L57.141 65.623L78.8644 78.2225L56.586 91.1439L55.5894 91.7219V92.874V117.803ZM55.5895 61.9041L35.4742 73.3244V49.0652V47.9131L34.4776 47.3351L12.1993 34.4137L32.6045 22.5787L55.5895 35.7129V61.9041ZM55.5895 31.1059L35.4741 19.6115V-8.77222L57.3211 -21.1757L78.8296 -8.84421L56.5948 3.90376L55.5895 4.4801V5.63882V31.1059ZM55.5894 -24.7923L35.4741 -13.3719V-38.17V-39.3287L34.4689 -39.9051L12.234 -52.6531L32.4172 -64.2247L55.5894 -50.9836V-24.7923ZM7.16685 2.69937L31.4741 -11.101V-37.0113L8.21298 -50.3477L-15.0482 -37.0113V-9.99486L7.16685 2.69937ZM6.17139 6.73752L-15.0482 -5.38786V18.6102L8.21298 32.1016L31.4741 18.6102V-6.50124L8.1511 6.74028L7.16046 7.3027L6.17139 6.73752ZM7.16685 89.3958L31.4742 75.5954V50.2172L8.21298 36.7257L-15.0483 50.2172V76.7015L7.16685 89.3958ZM6.17139 93.434L-15.0483 81.3085V105.509L8.21298 119L31.4742 105.509V80.1951L8.1511 93.4367L7.16046 93.9991L6.17139 93.434ZM7.16685 176.092L31.4741 162.292V137.116L8.21298 123.624L-15.0482 137.116V163.398L7.16685 176.092ZM6.17139 180.131L-15.0482 168.005V192.73L8.21298 205.912L31.4741 192.73V166.892L8.1511 180.133L7.16046 180.696L6.17139 180.131ZM8.05211 262.789L31.4742 249.491V223.691L8.21298 210.509L-15.0483 223.691V249.589L8.05211 262.789ZM7.05664 266.827L-15.0483 254.196V280.914L7.096 293.487L31.4742 278.943V254.091L9.03636 266.83L8.04572 267.393L7.05664 266.827ZM31.4741 311.927V336.188L8.05211 349.486L-15.0482 336.286V311.355L7.14585 298.115L31.4741 311.927ZM106.112 -49.3067L83.2317 -36.3166L82.241 -35.7542L81.252 -36.3194L59.5894 -48.6979V-24.486L82.8507 -11.1496L106.112 -24.486V-49.3067ZM110.112 -51.5777L132.838 -64.4803L153.467 -52.6531L131.232 -39.9051L130.227 -39.3287V-38.17V-12.7069L110.112 -24.201V-51.5777ZM107.863 -20.8791L86.8717 -8.84421L109.107 3.90376L110.112 4.4801V5.63882V30.519L130.227 19.0989V-8.09988L107.863 -20.8791ZM106.112 32.79V6.79755L82.8507 -6.53882L59.5895 6.79755V33.3916L82.2474 46.3389L106.112 32.79ZM59.5895 37.9986L81.252 50.3771L82.241 50.9422L83.2317 50.3798L106.112 37.3897V62.419L82.8507 75.9104L59.5895 62.419V37.9986ZM110.112 35.1187L132.653 22.3213L153.502 34.4137L131.223 47.3351L130.227 47.9131V49.0652V73.9895L110.112 62.4954V35.1187ZM108.045 65.9216L86.837 78.2225L109.115 91.1439L110.112 91.7219V92.874V117.216L130.227 105.796V78.5965L108.045 65.9216ZM106.112 119.487V94.0261L82.8507 80.5345L59.5894 94.0261V120.088L82.2474 133.036L106.112 119.487ZM59.5894 124.695L81.252 137.074L82.241 137.639L83.2317 137.076L106.112 124.086V149.317L82.8507 162.809L59.5894 149.317V124.695ZM110.112 121.815L132.477 109.118L153.502 121.312L131.223 134.233L130.227 134.811V135.964V160.686L110.112 149.192V121.815ZM108.221 152.718L86.837 165.121L109.115 178.042L110.112 178.62V179.772V204.415L130.227 192.995V165.293L108.221 152.718ZM106.112 206.686V180.924L82.8507 167.433L59.5895 180.924V206.279L83.1327 219.732L106.112 206.686ZM59.5895 210.886L82.1372 223.771L83.1263 224.336L84.1169 223.773L106.112 211.286V236.539L82.8507 249.72L59.5895 236.539V210.886ZM110.112 209.015L132.46 196.327L153.431 208.21L131.241 220.785L130.227 221.36V222.525V246.877L110.112 235.383V209.015ZM109.128 239.428L109.098 239.445L86.9074 252.019L109.098 264.594L110.112 265.168V266.334V291.112L130.227 279.692V251.484L109.128 239.428ZM106.112 293.383V267.499L82.8507 254.318L59.5894 267.499V292.976L83.1327 306.429L106.112 293.383ZM59.5894 297.583L82.1372 310.467L83.1263 311.032L84.1169 310.47L106.112 297.983V322.752L81.7337 337.295L59.6797 324.774L59.9374 324.628L59.5894 324.015V297.583ZM110.112 295.712L131.15 283.767L131.239 283.818L152.42 295.843L131.202 308.502L130.227 309.084V310.219V333.574L110.112 322.08V295.712ZM334.63 -8.52077L357.002 -21.2223L378.592 -8.84421L356.357 3.90376L355.352 4.4801V5.63882V31.0394L335.623 19.7658L333.638 23.2388L355.352 35.6464V61.8115L334.63 73.5759V49.0652V47.9131L333.634 47.3351L311.356 34.4137L333.634 21.4923L334.63 20.9143V19.7622V-8.52077ZM359.352 62.419V37.9321L384.211 52.1376L385.201 52.7027L386.191 52.1403L405.874 40.9655V62.419L382.613 75.9104L359.352 62.419ZM385.207 48.0994L405.874 36.3658V6.79755L382.613 -6.53882L359.352 6.79755V33.3251L385.207 48.0994ZM334.63 78.1756L356.823 65.5762L378.627 78.2225L356.348 91.1439L355.352 91.7219V92.874V117.736L335.623 106.462L333.638 109.935L355.352 122.343V148.508L334.63 160.273V135.964V134.811L333.634 134.233L311.356 121.312L333.634 108.391L334.63 107.813V106.661V78.1756ZM359.352 149.317V124.629L384.211 138.834L385.201 139.399L386.191 138.837L405.874 127.662V149.317L382.613 162.809L359.352 149.317ZM385.207 134.796L405.874 123.062V94.0261L382.613 80.5345L359.352 94.0261V120.022L385.207 134.796ZM334.63 164.872L356.647 152.373L378.627 165.121L356.348 178.042L355.352 178.62V179.772V203.927L336.508 193.159L334.523 196.632L355.352 208.534V235.708L334.63 247.472V222.525V221.36L333.616 220.785L311.426 208.21L333.616 195.636L334.63 195.061V193.896V164.872ZM359.352 236.539V210.82L385.097 225.531L386.086 226.096L387.076 225.534L405.874 214.862V236.539L382.613 249.72L359.352 236.539ZM386.092 221.493L405.874 210.262V180.924L382.613 167.433L359.352 180.924V206.213L386.092 221.493ZM334.63 252.072L356.619 239.588L378.556 252.019L356.366 264.594L355.352 265.168V266.334V290.624L336.508 279.856L334.523 283.329L355.352 295.231V322.404L334.63 334.169V310.762V309.598L333.618 309.023L310.253 295.758L333.655 281.796L334.63 281.214V280.079V252.072ZM359.352 324.302V297.516L385.097 312.228L386.086 312.793L387.076 312.231L405.874 301.558V322.752L381.496 337.295L359.36 324.728L359.537 324.628L359.352 324.302ZM386.092 308.19L405.874 296.959V267.499L382.613 254.318L359.352 267.499V292.909L386.092 308.19ZM359.352 -24.486V-48.7644L384.211 -34.5589L385.201 -33.9937L386.191 -34.5561L405.874 -45.731V-24.486L382.613 -11.1496L359.352 -24.486ZM330.63 311.927V336.44L307.651 349.486L284.108 336.033V311.355L306.302 298.115L330.63 311.927ZM280.108 310.219V333.747L259.387 321.906V296.056L281.031 283.767L281.121 283.818L302.302 295.843L281.083 308.502L280.108 309.084V310.219ZM330.63 249.743V223.691L307.369 210.509L284.108 223.691V249.336L307.651 262.789L330.63 249.743ZM284.108 253.943L306.656 266.827L307.645 267.393L308.635 266.83L330.63 254.343V278.943L306.252 293.487L284.726 281.265L284.108 280.177V253.943ZM280.108 247.05V222.525V221.36L281.122 220.785L303.313 208.21L282.341 196.327L259.387 209.359V235.21L280.108 247.05ZM257.322 238.637L280.108 251.657V279.692L259.387 291.456V266.954V265.789L258.374 265.214L235.009 251.949L257.322 238.637ZM330.63 137.116V162.544L306.766 176.092L284.108 163.145V137.116L307.369 123.624L330.63 137.116ZM280.108 135.964V160.859L259.387 149.019V122.159L282.358 109.118L303.383 121.312L281.105 134.233L280.108 134.811V135.964ZM280.108 165.466L257.301 152.434L236.182 164.402L258.373 176.976L259.387 177.551V178.716V204.759L280.108 192.995V165.466ZM305.771 180.131L284.108 167.752V192.73L307.369 205.912L330.63 192.73V167.143L307.75 180.133L306.76 180.696L305.771 180.131ZM330.63 75.8469V50.2172L307.369 36.7257L284.108 50.2172V76.4484L306.766 89.3958L330.63 75.8469ZM284.108 81.0555L305.771 93.434L306.76 93.9991L307.75 93.4367L330.63 80.4466V105.509L307.369 119L284.108 105.509V81.0555ZM280.108 74.1628V49.0652V47.9131L281.105 47.3351L303.383 34.4137L282.534 22.3212L259.387 35.4628V62.3221L280.108 74.1628ZM256.846 65.4774L280.108 78.7698V105.795L259.387 117.56V92.1547V91.0026L258.39 90.4246L236.112 77.5032L256.846 65.4774ZM330.63 -37.0113V-10.8495L306.766 2.69937L284.108 -10.2479V-37.0113L307.369 -50.3477L330.63 -37.0113ZM280.108 -38.17V-12.5336L259.387 -24.3743V-51.2336L282.719 -64.4804L303.348 -52.6531L281.113 -39.9051L280.108 -39.3287V-38.17ZM280.108 -7.92662L256.671 -21.3193L236.112 -9.39517L258.39 3.52626L259.387 4.10426V5.25632V30.8631L280.108 19.0987V-7.92662ZM305.771 6.73752L284.108 -5.64091V18.6102L307.369 32.1016L330.63 18.6102V-6.24979L307.75 6.74028L306.76 7.3027L305.771 6.73752ZM208.864 292.629L233.014 306.429L255.387 293.727V268.118L231.058 254.306L208.864 267.546V292.629ZM204.864 290.344L184.749 278.849V252.244L206.088 240.129L227.058 252.035L205.84 264.693L204.864 265.275V266.411V290.344ZM182.83 282.359L204.864 294.951V321.253H207.802L184.749 334.341V310.762V309.598L183.736 309.023L160.371 295.758L182.83 282.359ZM255.387 179.882V207.03L233.014 219.732L208.864 205.932V179.882L232.126 166.7L255.387 179.882ZM204.864 178.716V203.647L184.749 192.152V165.044L206.955 152.437L228.069 164.402L205.878 176.976L204.864 177.551V178.716ZM204.864 208.254L183.257 195.907L161.545 208.21L183.735 220.785L184.749 221.36V222.525V247.644L204.864 236.224V208.254ZM232.019 223.77L208.864 210.539V236.004L209.787 237.629L231.009 249.678L255.387 235.134V211.63L233.998 223.773L233.008 224.335L232.019 223.77ZM255.387 119.831L232.129 133.035L208.864 119.742V93.3067L232.126 79.8153L255.387 93.3067V119.831ZM208.864 124.349L231.133 137.073L232.122 137.639L233.113 137.076L255.387 124.43V148.921L232.126 162.103L208.864 148.921V124.349ZM204.864 117.456V92.1547V91.0026L205.861 90.4246L228.139 77.5032L207.412 65.4812L184.749 78.3477V105.961L204.864 117.456ZM182.356 109.201L204.864 122.063V149.024L184.749 160.445V135.964V134.811L183.752 134.233L161.474 121.312L182.356 109.201ZM255.387 6.40837V33.134L232.129 46.3387L208.864 33.0448V6.40837L232.126 -7.08313L255.387 6.40837ZM204.864 5.25632V30.7591L184.749 19.2647V-8.34862L207.588 -21.3151L228.139 -9.39517L205.861 3.52626L204.864 4.10426V5.25632ZM204.864 35.3661L182.181 22.404L161.474 34.4137L183.753 47.3351L184.749 47.9131V49.0652V73.748L204.864 62.3277V35.3661ZM231.133 50.3768L208.864 37.6518V61.6997L232.126 75.1912L255.387 61.6997V37.7337L233.113 50.3796L232.122 50.942L231.133 50.3768ZM204.864 -51.3303L181.995 -64.3984L161.509 -52.6531L183.744 -39.9051L184.749 -39.3287V-38.17V-12.9483L204.864 -24.3687V-51.3303ZM208.864 -49.0446L231.133 -36.3196L232.122 -35.7544L233.113 -36.3168L255.387 -48.9626V-25.1987L232.126 -11.7072L208.864 -25.1987V-49.0446ZM255.387 -53.5623L232.129 -40.3578L208.864 -53.6516V-80.8201L232.126 -94.1565L255.387 -80.8201V-53.5623ZM180.749 311.927V336.612L158.073 349.486L134.227 335.86V311.355L156.421 298.115L180.749 311.927ZM134.227 253.77V280.177L134.844 281.265L156.371 293.487L180.749 278.943V254.515L159.057 266.83L158.067 267.393L157.078 266.827L134.227 253.77ZM180.749 249.915L158.073 262.789L134.227 249.163V223.691L157.488 210.509L180.749 223.691V249.915ZM180.749 137.116V162.716L157.188 176.092L134.227 162.972V137.116L157.488 123.624L180.749 137.116ZM134.227 192.73V167.579L156.192 180.131L157.181 180.696L158.172 180.133L180.749 167.315V192.73L157.488 205.912L134.227 192.73ZM134.227 80.8822V105.509L157.488 119L180.749 105.509V80.6187L158.172 93.4367L157.181 93.9991L156.192 93.434L134.227 80.8822ZM180.749 76.019L157.188 89.3958L134.227 76.2752V50.2172L157.488 36.7257L180.749 50.2172V76.019ZM180.749 -37.0113V-10.6774L157.188 2.69937L134.227 -10.4212V-37.0113L157.488 -50.3477L180.749 -37.0113ZM156.192 6.73752L134.227 -5.81419V18.6102L157.488 32.1016L180.749 18.6102V-6.07764L158.172 6.74028L157.181 7.3027L156.192 6.73752Z" fill="#2D2A38"/>
</svg>
