<svg width="264" height="73" viewBox="0 0 264 73" fill="none" xmlns="http://www.w3.org/2000/svg">
<path d="M14.586 72.5238C13.974 72.5238 13.6 72.2178 13.464 71.6059L0 2.24584V2.04184C0 1.42984 0.306 1.12384 0.918 1.12384H6.324C7.004 1.12384 7.378 1.42984 7.446 2.04184L17.034 55.6938C17.102 55.8298 17.17 55.8978 17.238 55.8978C17.306 55.8978 17.374 55.8298 17.442 55.6938L25.704 2.04184C25.84 1.42984 26.18 1.12384 26.724 1.12384H31.416C32.028 1.12384 32.368 1.42984 32.436 2.04184L41.106 55.6938C41.174 55.8298 41.242 55.8978 41.31 55.8978C41.378 55.8978 41.446 55.8298 41.514 55.6938L50.286 2.04184C50.422 1.42984 50.762 1.12384 51.306 1.12384H56.712C57.052 1.12384 57.29 1.22584 57.426 1.42984C57.63 1.63385 57.698 1.90584 57.63 2.24584L44.982 71.6059C44.914 72.2178 44.54 72.5238 43.86 72.5238H38.862C38.318 72.5238 37.978 72.2178 37.842 71.6059L29.274 17.7498C29.206 17.6138 29.104 17.5458 28.968 17.5458C28.9 17.5458 28.866 17.6138 28.866 17.7498L20.502 71.6059C20.434 72.2178 20.094 72.5238 19.482 72.5238H14.586Z" fill="#2D2A38"/>
<path d="M94.1508 2.14384C94.1508 1.46384 94.4908 1.12384 95.1708 1.12384H100.373C101.053 1.12384 101.393 1.46384 101.393 2.14384V71.5038C101.393 72.1838 101.053 72.5238 100.373 72.5238H95.1708C94.4908 72.5238 94.1508 72.1838 94.1508 71.5038V40.3938C94.1508 40.1218 94.0148 39.9858 93.7428 39.9858H75.5868C75.3148 39.9858 75.1788 40.1218 75.1788 40.3938V71.5038C75.1788 72.1838 74.8388 72.5238 74.1588 72.5238H68.9568C68.2768 72.5238 67.9368 72.1838 67.9368 71.5038V2.14384C67.9368 1.46384 68.2768 1.12384 68.9568 1.12384H74.1588C74.8388 1.12384 75.1788 1.46384 75.1788 2.14384V33.1518C75.1788 33.4238 75.3148 33.5598 75.5868 33.5598H93.7428C94.0148 33.5598 94.1508 33.4238 94.1508 33.1518V2.14384Z" fill="#2D2A38"/>
<path d="M188.78 2.14384C188.78 1.46384 189.12 1.12384 189.8 1.12384H195.002C195.682 1.12384 196.022 1.46384 196.022 2.14384V71.5038C196.022 72.1838 195.682 72.5238 195.002 72.5238H189.8C189.12 72.5238 188.78 72.1838 188.78 71.5038V40.3938C188.78 40.1218 188.644 39.9858 188.372 39.9858H170.216C169.944 39.9858 169.808 40.1218 169.808 40.3938V71.5038C169.808 72.1838 169.468 72.5238 168.788 72.5238H163.586C162.906 72.5238 162.566 72.1838 162.566 71.5038V2.14384C162.566 1.46384 162.906 1.12384 163.586 1.12384H168.788C169.468 1.12384 169.808 1.46384 169.808 2.14384V33.1518C169.808 33.4238 169.944 33.5598 170.216 33.5598H188.372C188.644 33.5598 188.78 33.4238 188.78 33.1518V2.14384Z" fill="#2D2A38"/>
<path d="M220.877 72.5238C220.265 72.5238 219.891 72.2178 219.755 71.6059L206.291 2.24584V2.04184C206.291 1.42984 206.597 1.12384 207.209 1.12384H212.615C213.295 1.12384 213.669 1.42984 213.737 2.04184L223.325 55.6938C223.393 55.8298 223.461 55.8978 223.529 55.8978C223.597 55.8978 223.665 55.8298 223.733 55.6938L231.995 2.04184C232.131 1.42984 232.471 1.12384 233.015 1.12384H237.707C238.319 1.12384 238.659 1.42984 238.727 2.04184L247.397 55.6938C247.465 55.8298 247.533 55.8978 247.601 55.8978C247.669 55.8978 247.737 55.8298 247.805 55.6938L256.577 2.04184C256.713 1.42984 257.053 1.12384 257.597 1.12384H263.003C263.343 1.12384 263.581 1.22584 263.717 1.42984C263.921 1.63385 263.989 1.90584 263.921 2.24584L251.273 71.6059C251.205 72.2178 250.831 72.5238 250.151 72.5238H245.153C244.609 72.5238 244.269 72.2178 244.133 71.6059L235.565 17.7498C235.497 17.6138 235.395 17.5458 235.259 17.5458C235.191 17.5458 235.157 17.6138 235.157 17.7498L226.793 71.6059C226.725 72.2178 226.385 72.5238 225.773 72.5238H220.877Z" fill="#2D2A38"/>
<path fill-rule="evenodd" clip-rule="evenodd" d="M121.291 61.6299C121.291 62.209 121.562 62.7621 122.054 63.2689C121.562 63.7757 121.291 64.3288 121.291 64.9079C121.291 65.4871 121.562 66.0402 122.054 66.547C121.562 67.0537 121.291 67.6069 121.291 68.186C121.291 70.6245 126.094 72.6014 132.019 72.6014C137.944 72.6014 142.747 70.6245 142.747 68.186C142.747 67.6069 142.477 67.0537 141.984 66.547C142.477 66.0402 142.747 65.4871 142.747 64.9079C142.747 64.3288 142.477 63.7757 141.984 63.2689C142.477 62.7621 142.747 62.209 142.747 61.6299C142.747 61.0507 142.477 60.4976 141.984 59.9908C142.477 59.4841 142.747 58.9309 142.747 58.3518C142.747 57.7346 142.44 57.147 141.884 56.6136C143.845 54.9916 143.78 52.4276 143.701 49.2652V49.265V49.2649V49.2648C143.685 48.6133 143.668 47.9364 143.668 47.2371C143.668 44.9154 145.675 41.0771 147.854 36.9105L147.854 36.9105C150.441 31.9643 153.269 26.5554 153.269 22.6715C153.269 15.5157 151.152 10.5183 146.011 6.09129C141.395 2.11604 137.455 0.648899 131.364 0.72444C125.471 0.797514 120.385 2.96641 117.26 6.09129C114.201 9.21616 111.398 12.6146 110.36 19.7713C109.366 26.6231 112.49 32.2514 115.483 37.6459C117.094 40.5483 118.667 43.383 119.541 46.3042C120.597 49.8307 120.321 51.7345 120.131 53.0489C119.913 54.559 119.807 55.291 121.961 56.8119C121.528 57.2913 121.291 57.8102 121.291 58.3518C121.291 58.9309 121.562 59.4841 122.054 59.9908C121.562 60.4976 121.291 61.0507 121.291 61.6299Z" fill="#2D2A38"/>
<path d="M136.482 52.6036C136.482 52.6036 133.433 53.9365 131.514 53.9365C129.595 53.9365 127.048 52.6036 127.048 52.6036C127.048 52.6036 127.809 47.386 124.667 39.8521C121.525 32.3181 117.09 29.7274 117.09 22.309C117.09 15.152 120.738 12.5438 123.058 10.6423C124.987 9.06202 127.953 7.90495 131.349 7.8884C134.785 7.87166 137.394 8.60028 140.162 10.6355C143.674 13.2175 146.351 16.9937 146.351 22.4688C146.351 27.9439 143.673 31.5741 139.464 39.8521C138.374 41.996 138.205 41.8179 137.008 45.4999C135.811 49.182 136.482 52.6036 136.482 52.6036Z" fill="#FAEFDB"/>
</svg>
